<svg version="1.1" xmlns="http://www.w3.org/2000/svg" xmlns:xlink="http://www.w3.org/1999/xlink" width="48" height="48"><defs><linearGradient x1="11.82256" y1="10.46951" x2="45.62699" y2="46.98004" gradientUnits="userSpaceOnUse" id="color-1"><stop offset="0" stop-color="#000000" stop-opacity="0.35"></stop><stop offset="1" stop-color="#000000" stop-opacity="0"></stop></linearGradient><filter id="dropshadow-base"><feColorMatrix type="matrix" values="0 0 0 0 0  0 0 0 0 0  0 0 0 0 0  0 0 0 .8 0"></feColorMatrix> <feOffset dx="0" dy="1"></feOffset> <feGaussianBlur stdDeviation="1"></feGaussianBlur> <feComposite in="SourceGraphic"></feComposite></filter><filter id="dropshadow-banner" x="-10%" y="-10%" width="120%" height="130%"><feColorMatrix type="matrix" values="0 0 0 0 0  0 0 0 0 0  0 0 0 0 0  0 0 0 .4 0"></feColorMatrix> <feOffset dx="0" dy="1"></feOffset> <feGaussianBlur stdDeviation="0.5"></feGaussianBlur> <feComposite in="SourceGraphic"></feComposite></filter></defs><g fill="none" fill-rule="nonzero" stroke="none" stroke-width="none" stroke-linecap="butt" stroke-linejoin="miter" stroke-miterlimit="10" stroke-dasharray="" stroke-dashoffset="0" font-family="none" font-weight="none" font-size="none" text-anchor="none" style="mix-blend-mode: normal"><path d="M2,24c0,-12.15026 9.84974,-22 22,-22c12.15026,0 22,9.84974 22,22c0,12.15026 -9.84974,22 -22,22c-12.15026,0 -22,-9.84974 -22,-22z" id="base 1 5" fill="#c32222" stroke-width="1"></path><path d="M33.44955,19.91905c-0.62708,0 -1.21918,0.14335 -1.7469,0.39853l2.70415,2.70415c0.24427,0.24427 0.3958,0.58185 0.3958,0.95647l1.37485,1.37485v-3.80883l-1.40098,-1.40098c-0.415,-0.14515 -0.86131,-0.22418 -1.32692,-0.22418zM23.9782,22.62515c-1.49512,0 -2.7061,1.21098 -2.7061,2.7061l0,2.93612l0.0218,0.0218l5.66401,-5.66401zM21.2721,32.0965v5.434h5.434zM12.61493,36.73811c-0.48963,-0.48963 -0.79238,-1.16616 -0.79238,-1.91372v-18.94269c0,-1.49512 1.21098,-2.7061 2.7061,-2.7061h5.66251c0.55475,-1.56954 2.0431,-2.7061 3.80883,-2.7061c1.1143,0 2.11814,0.45264 2.84658,1.18108l1.52502,1.52502l5.09975,0c0.74756,0 1.42408,0.30274 1.91372,0.79238l9.44955,9.44955c0.48963,0.48963 0.79238,1.16616 0.79238,1.91372v2.72418c-1.90317,10.21303 -10.86218,17.94457 -21.62699,17.94457c-0.75459,0 -1.50031,-0.03799 -2.23534,-0.11216z" fill="url(#color-1)" stroke-width="1"></path><path d="M33.47135,13.1756h-5.66251c-0.55475,-1.56954 -2.0431,-2.7061 -3.80883,-2.7061c-1.76573,0 -3.25408,1.13656 -3.80883,2.7061h-5.66251c-1.49512,0 -2.7061,1.21098 -2.7061,2.7061v18.94269c0,1.49512 1.21098,2.7061 2.7061,2.7061h18.94269c1.49512,0 2.7061,-1.21098 2.7061,-2.7061v-18.94269c0,-1.49512 -1.21098,-2.7061 -2.7061,-2.7061zM24,13.1756c0.74418,0 1.35305,0.60211 1.35305,1.35305c0,0.75094 -0.60887,1.35305 -1.35305,1.35305c-0.74418,0 -1.35305,-0.60211 -1.35305,-1.35305c0,-0.75094 0.60887,-1.35305 1.35305,-1.35305zM21.2939,32.1183l-5.4122,-5.4122l1.91456,-1.91456l3.49763,3.49763l8.90983,-8.90983l1.91456,1.91456z" fill="none" stroke-width="0"></path><path d="M36.17744,15.8817v18.94269c0,1.49512 -1.21098,2.7061 -2.7061,2.7061h-18.94269c-1.49512,0 -2.7061,-1.21098 -2.7061,-2.7061v-18.94269c0,-1.49512 1.21098,-2.7061 2.7061,-2.7061h5.66251c0.55475,-1.56954 2.0431,-2.7061 3.80883,-2.7061c1.76573,0 3.25408,1.13656 3.80883,2.7061h5.66251c1.49512,0 2.7061,1.21098 2.7061,2.7061zM22.64695,14.52865c0,0.75094 0.60887,1.35305 1.35305,1.35305c0.74418,0 1.35305,-0.60211 1.35305,-1.35305c0,-0.75094 -0.60887,-1.35305 -1.35305,-1.35305c-0.74418,0 -1.35305,0.60211 -1.35305,1.35305zM32.1183,21.2939l-1.91456,-1.91456l-8.90983,8.90983l-3.49763,-3.49763l-1.91456,1.91456l5.4122,5.4122z" fill="#ffffff" stroke-width="0"></path><path d="M2,24c0,-12.15026 9.84974,-22 22,-22c12.15026,0 22,9.84974 22,22c0,12.15026 -9.84974,22 -22,22c-12.15026,0 -22,-9.84974 -22,-22z" id="base 1 1 1" fill="none" stroke-width="1"></path><g fill="#000000" stroke-width="1" font-family="Roboto, sans-serif" font-weight="400" font-size="14" text-anchor="start"></g><rect x="2" y="2" width="44" height="22" fill="none" stroke-width="1"></rect><path d="M2,24v-22h44v22z" fill="none" stroke-width="1"></path><path d="M2,24v-22h44v22z" fill="none" stroke-width="1"></path><path d="M2,24v-22h44v22z" fill="none" stroke-width="1"></path><path d="M2,24v-22h44v22z" fill="none" stroke-width="1"></path></g></svg>